<?xml version="1.0" encoding="UTF-8" standalone="no"?>
<!-- Created with Inkscape (http://www.inkscape.org/) -->

<svg
   xmlns:dc="http://purl.org/dc/elements/1.1/"
   xmlns:cc="http://creativecommons.org/ns#"
   xmlns:rdf="http://www.w3.org/1999/02/22-rdf-syntax-ns#"
   xmlns:svg="http://www.w3.org/2000/svg"
   xmlns="http://www.w3.org/2000/svg"
   xmlns:sodipodi="http://sodipodi.sourceforge.net/DTD/sodipodi-0.dtd"
   xmlns:inkscape="http://www.inkscape.org/namespaces/inkscape"
   width="602mm"
   height="602mm"
   viewBox="0 0 602 602"
   version="1.1"
   id="svg8"
   inkscape:version="0.92.4 (5da689c313, 2019-01-14)"
   sodipodi:docname="88.svg">
  <defs
     id="defs2" />
  <sodipodi:namedview
     id="base"
     pagecolor="#ffffff"
     bordercolor="#666666"
     borderopacity="1.0"
     inkscape:pageopacity="0.0"
     inkscape:pageshadow="2"
     inkscape:zoom="0.24748737"
     inkscape:cx="2061.8127"
     inkscape:cy="963.14795"
     inkscape:document-units="mm"
     inkscape:current-layer="layer1"
     showgrid="false"
     inkscape:window-width="1920"
     inkscape:window-height="1057"
     inkscape:window-x="-8"
     inkscape:window-y="-8"
     inkscape:window-maximized="1"
     inkscape:lockguides="true" />
  <metadata
     id="metadata5">
    <rdf:RDF>
      <cc:Work
         rdf:about="">
        <dc:format>image/svg+xml</dc:format>
        <dc:type
           rdf:resource="http://purl.org/dc/dcmitype/StillImage" />
        <dc:title></dc:title>
      </cc:Work>
    </rdf:RDF>
  </metadata>
  <g
     inkscape:label="Layer 1"
     inkscape:groupmode="layer"
     id="layer1"
     transform="translate(0,305)">
    <circle
       style="opacity:1;fill:#ff3219;fill-opacity:1;fill-rule:nonzero;stroke:none;stroke-width:11.74168015;stroke-linecap:square;stroke-linejoin:round;stroke-miterlimit:4;stroke-dasharray:none;stroke-opacity:1"
       id="path10"
       cx="301"
       cy="-4"
       r="300" />
    <circle
       r="240"
       cy="-4"
       cx="301"
       id="circle817"
       style="opacity:1;fill:#ffffff;fill-opacity:1;fill-rule:nonzero;stroke:none;stroke-width:9.39334393;stroke-linecap:square;stroke-linejoin:round;stroke-miterlimit:4;stroke-dasharray:none;stroke-opacity:1" />
    <path
       style="fill:#ff3219;fill-opacity:1;fill-rule:nonzero;stroke:none;stroke-width:0.21971665"
       d="m 414.00018,-88.00007 -47.5796,0.002 c -6.1194,-0.0728 -20.8425,3.11037 -23.6791,21.57705 l -7.0162,43.81645 c 0,0 -12.6411,0.65833 -12.7165,14.3117799 V 30.89965 c 0,0 -0.5374,7.42668 6.797,11.66957 v 30.82551 c 0,0 4.6271,6.51677 14.4704,6.60527 9.7886,-0.0886 13.5935,-6.8254 13.5935,-6.8254 V 44.9913 c 0,0 39.2925,2.12283 56.1305,2.20865 16.8379,-0.0858 56.1304,-2.20865 56.1304,-2.20865 v 28.1833 c 0,0 3.8049,6.73682 13.5935,6.8254 9.8433,-0.0885 14.4704,-6.60527 14.4704,-6.60527 V 42.56922 c 7.3344,-4.24289 6.797,-11.66957 6.797,-11.66957 V -8.2927901 C 504.91648,-21.94624 492.27498,-22.60457 492.27498,-22.60457 l -7.0161,-43.81645 c -2.8367,-18.46668 -17.5598,-21.64989 -23.6792,-21.5775 z"
       id="path18"
       inkscape:connector-curvature="0" />
    <path
       style="fill:#ffffff;fill-opacity:1;fill-rule:nonzero;stroke:none;stroke-width:0.21982302"
       d="m 413.99988,-74.19988 -15.2321,0.003 c -2.4265,-0.0818 -28.6646,1.76644 -30.0518,1.98231 -7.9593,0.82827 -17.022,5.64164 -19.0835,16.74213 l -1.9746,13.2178 c 0,0 -2.207,11.43089 9.8712,11.45511 9.506,-0.025 44.6376,-2.09734 56.4708,-2.00042 11.8331,-0.0969 46.9647,1.97542 56.4707,2.00042 12.0782,-0.0242 9.8712,-11.45511 9.8712,-11.45511 l -1.9746,-13.2178 c -2.0615,-11.10049 -11.1242,-15.91386 -19.0835,-16.74213 -1.3872,-0.21587 -27.6253,-2.06411 -30.0518,-1.98231 z"
       id="path20"
       inkscape:connector-curvature="0"
       sodipodi:nodetypes="ccccccccccccc" />
    <path
       inkscape:connector-curvature="0"
       id="path1117"
       d="m 187.99982,-88.00007 47.5796,0.002 c 6.1194,-0.0728 20.8425,3.11037 23.6791,21.57705 l 7.0162,43.81645 c 0,0 12.6411,0.65833 12.7165,14.3117799 V 30.89965 c 0,0 0.5374,7.42668 -6.797,11.66957 v 30.82551 c 0,0 -4.6271,6.51677 -14.4704,6.60527 -9.7886,-0.0886 -13.5935,-6.8254 -13.5935,-6.8254 V 44.9913 c 0,0 -39.2925,2.12283 -56.1305,2.20865 -16.8379,-0.0858 -56.1304,-2.20865 -56.1304,-2.20865 v 28.1833 c 0,0 -3.8049,6.73682 -13.5935,6.8254 -9.8433,-0.0885 -14.4704,-6.60527 -14.4704,-6.60527 V 42.56922 c -7.3344,-4.24289 -6.797,-11.66957 -6.797,-11.66957 V -8.2927901 c 0.075,-13.6534499 12.7165,-14.3117799 12.7165,-14.3117799 l 7.0161,-43.81645 c 2.8367,-18.46668 17.5598,-21.64989 23.6792,-21.5775 z"
       style="fill:#000000;fill-opacity:1;fill-rule:nonzero;stroke:none;stroke-width:0.21971665" />
    <path
       sodipodi:nodetypes="ccccccccccccc"
       inkscape:connector-curvature="0"
       id="path1119"
       d="m 188.00012,-74.19988 15.2321,0.003 c 2.4265,-0.0818 28.6646,1.76644 30.0518,1.98231 7.9593,0.82827 17.022,5.64164 19.0835,16.74213 l 1.9746,13.2178 c 0,0 2.207,11.43089 -9.8712,11.45511 -9.506,-0.025 -44.6376,-2.09734 -56.4708,-2.00042 -11.8331,-0.0969 -46.9647,1.97542 -56.4707,2.00042 -12.0782,-0.0242 -9.8712,-11.45511 -9.8712,-11.45511 l 1.9746,-13.2178 c 2.0615,-11.10049 11.1242,-15.91386 19.0835,-16.74213 1.3872,-0.21587 27.6253,-2.06411 30.0518,-1.98231 z"
       style="fill:#ffffff;fill-opacity:1;fill-rule:nonzero;stroke:none;stroke-width:0.21982302" />
    <rect
       style="opacity:1;fill:#ff3219;fill-opacity:1;fill-rule:nonzero;stroke:none;stroke-width:4.10579681;stroke-linecap:square;stroke-linejoin:round;stroke-miterlimit:4;stroke-dasharray:none;stroke-opacity:1"
       id="rect1143"
       width="50"
       height="580"
       x="190.66757"
       y="-79.989288"
       transform="rotate(-45)" />
  </g>
</svg>
